<svg fill="#e8505b" height="800px" width="800px" version="1.1" id="Layer_1" xmlns="http://www.w3.org/2000/svg" xmlns:xlink="http://www.w3.org/1999/xlink" 
	 viewBox="0 0 512 512" xml:space="preserve">
<path d="M468.333,169.789H274.627c32.427-18.773,49.493-63.147,36.693-95.573c-0.853-4.267-3.413-7.68-5.973-11.947
			c-8.533-12.8-19.627-11.947-23.04-11.947c-5.12-0.853-5.973,0-19.627,11.093c-17.067,15.36-52.907,46.933-88.747,66.56
			c-1.707,1.707-39.253,24.747-67.413,50.347H84.333C37.4,178.323-1,216.723-1,263.656v85.333c0,36.693,30.72,75.093,66.56,83.627
			c10.24,2.56,17.92,5.12,21.333,8.533c10.24,8.533,34.133,18.773,65.707,18.773h136.533c23.893,0,42.667-18.773,42.667-42.667
			c0-9.387-3.413-18.773-8.533-25.6h8.533c23.893,0,42.667-18.773,42.667-42.667c0-9.387-3.413-18.773-8.533-25.6
			c23.893,0,42.667-18.773,42.667-42.667c0-9.387-3.413-18.773-8.533-25.6h68.267c23.893,0,42.667-18.773,42.667-42.667
			S492.227,169.789,468.333,169.789z M468.333,238.056H331.8H229.4c-5.12,0-8.533,3.413-8.533,8.533s3.413,8.533,8.533,8.533h102.4
			h34.133c14.507,0,25.6,11.093,25.6,25.6c0,14.507-11.093,25.6-25.6,25.6H331.8h-93.867c-5.12,0-8.533,3.413-8.533,8.533
			s3.413,8.533,8.533,8.533H331.8c14.507,0,25.6,11.093,25.6,25.6c0,14.507-11.093,25.6-25.6,25.6h-42.667H229.4
			c-5.12,0-8.533,3.413-8.533,8.533s3.413,8.533,8.533,8.533h59.733c14.507,0,25.6,11.093,25.6,25.6c0,14.507-11.093,25.6-25.6,25.6
			H152.6c-23.762,0-40.649-6.867-49.268-12.166c-4.656-5.402-6.964-14.246-10.466-27.087l-0.853-5.12
			c-0.853-4.267-5.973-6.827-10.24-5.973s-6.827,5.973-5.973,10.24l1.707,4.267c1.036,3.798,2.039,7.594,3.146,11.293
			c-3.346-1.058-6.967-1.988-10.826-2.76c-29.013-5.973-53.76-37.547-53.76-66.56v-85.333c0-37.547,30.72-68.267,68.267-68.267h8.36
			c-1.438,1.946-2.809,3.919-4.093,5.973c-3.413,5.12-5.973,9.387-10.24,14.507c-3.413,3.413-2.56,8.533,0.853,11.947
			c1.707,0.853,3.413,1.707,5.12,1.707c2.56,0,5.12-0.853,6.827-3.413c5.12-5.12,8.533-10.24,11.947-15.36
			c4.224-5.914,8.451-11.828,13.504-17.742c26.455-25.358,65.856-49.671,65.856-49.671c36.693-20.48,73.387-52.907,91.307-68.267
			c3.413-2.56,7.68-5.973,9.387-7.68c2.56,0,4.267,0,7.68,5.12c1.707,3.413,3.413,5.973,4.267,8.533
			c7.68,22.187-2.56,58.88-30.72,75.093l-21.317,14.211c-0.293,0.084-0.583,0.181-0.87,0.295l-17.067,8.533
			c-3.413,1.707-5.12,6.827-3.413,11.093s9.387,5.12,11.093,3.413l13.653-6.827h221.867c14.507,0,25.6,11.093,25.6,25.6
			C493.933,226.963,482.84,238.056,468.333,238.056z"/>
</svg>